<?xml version="1.0" standalone="no"?>
<!DOCTYPE svg PUBLIC "-//W3C//DTD SVG 20010904//EN"
 "http://www.w3.org/TR/2001/REC-SVG-20010904/DTD/svg10.dtd">
<svg version="1.0" xmlns="http://www.w3.org/2000/svg"
 width="1040.000000pt" height="1040.000000pt" viewBox="0 0 1040.000000 1040.000000"
 preserveAspectRatio="xMidYMid meet">
<metadata>
Created by potrace 1.14, written by Peter Selinger 2001-2017
</metadata>
<g transform="translate(0.000000,1040.000000) scale(0.100000,-0.100000)"
fill="#000000" stroke="none">
<path d="M4875 9714 c-196 -20 -341 -39 -455 -60 -1195 -217 -2246 -916 -2923
-1944 -395 -600 -636 -1281 -719 -2025 -21 -188 -17 -791 5 -975 102 -825 377
-1527 855 -2182 47 -65 88 -118 91 -118 9 0 6296 6289 6291 6293 -675 554
-1440 882 -2310 993 -119 15 -732 28 -835 18z"/>
<path d="M5431 4976 l-3153 -3153 118 -98 c669 -547 1434 -873 2304 -982 208
-26 792 -26 1000 0 993 124 1868 541 2574 1227 764 742 1228 1700 1348 2785
21 188 17 791 -5 975 -97 782 -361 1481 -790 2092 -86 122 -228 307 -237 308
-3 0 -1424 -1419 -3159 -3154z"/>
</g>
</svg>
