<?xml version="1.0" standalone="no"?>
<!DOCTYPE svg PUBLIC "-//W3C//DTD SVG 20010904//EN"
 "http://www.w3.org/TR/2001/REC-SVG-20010904/DTD/svg10.dtd">
<svg version="1.0" xmlns="http://www.w3.org/2000/svg"
 width="1040.000000pt" height="1040.000000pt" viewBox="0 0 1040.000000 1040.000000"
 preserveAspectRatio="xMidYMid meet">
<metadata>
Created by potrace 1.14, written by Peter Selinger 2001-2017
</metadata>
<g transform="translate(0.000000,1040.000000) scale(0.100000,-0.100000)"
fill="#000000" stroke="none">
<path d="M5520 8679 l0 -1031 38 22 c20 12 505 292 1077 622 572 330 1051 607
1064 616 l25 15 -31 26 c-58 48 -337 214 -498 296 -463 236 -976 391 -1490
450 -71 8 -142 15 -157 15 l-28 0 0 -1031z"/>
<path d="M4572 9680 c-1270 -193 -2367 -895 -3075 -1970 -386 -587 -619 -1229
-713 -1970 -18 -145 -32 -788 -17 -814 7 -14 312 159 1981 1121 l1971 1138 1
1258 c0 999 -3 1257 -12 1256 -7 0 -68 -9 -136 -19z"/>
<path d="M6943 7547 l-1423 -822 0 -1132 c0 -623 2 -1133 5 -1133 4 0 3867
2229 3873 2235 6 6 -92 253 -160 404 -167 371 -382 714 -645 1029 -106 127
-212 242 -222 241 -3 0 -646 -370 -1428 -822z"/>
<path d="M2813 5162 c-1174 -677 -1902 -1103 -1903 -1112 0 -25 79 -277 132
-420 160 -429 402 -860 681 -1215 37 -47 74 -88 82 -91 8 -4 633 352 1465 831
l1450 838 0 1133 c0 624 -1 1134 -2 1134 -2 0 -859 -494 -1905 -1098z"/>
<path d="M7555 4706 l-2030 -1173 -3 -1402 -2 -1401 28 0 c54 0 290 31 432 56
904 162 1738 609 2390 1280 697 717 1116 1604 1246 2634 21 169 30 682 15 865
-15 180 -32 315 -40 314 -3 0 -919 -528 -2036 -1173z"/>
<path d="M3563 2400 c-633 -366 -1154 -668 -1158 -671 -3 -4 34 -38 82 -76
529 -418 1182 -719 1853 -852 118 -24 372 -62 377 -57 2 1 2 524 1 1162 l-3
1159 -1152 -665z"/>
</g>
</svg>
